<svg data-v-fde0c5aa="" xmlns="http://www.w3.org/2000/svg" viewBox="0 0 300 300" class="iconLeft"><!----><defs data-v-fde0c5aa=""><linearGradient data-v-fde0c5aa="" gradientTransform="rotate(25)" id="31005f0f-cb98-4841-870b-3d6e56362984" x1="0%" y1="0%" x2="100%" y2="0%"><stop data-v-fde0c5aa="" offset="0%" stop-color="#E98C00" stop-opacity="1"></stop><stop data-v-fde0c5aa="" offset="100%" stop-color="#8F5BFE" stop-opacity="1"></stop></linearGradient></defs><rect data-v-fde0c5aa="" fill="url(#31005f0f-cb98-4841-870b-3d6e56362984)" x="0" y="0" width="300px" height="300px" class="logo-background-square"></rect><defs data-v-fde0c5aa=""><!----></defs><g data-v-fde0c5aa="" id="055f96b2-4c4a-43c3-ab7a-91e2cbbcd5bf" fill="#ffffff" transform="matrix(3.1787912739531836,0,0,3.1787912739531836,101.15579857595073,128.06633990656988)"><path d="M7.71 2.21L0.20 2.21L0.20 3.22L3.43 3.22L3.43 11.48L4.48 11.48L4.48 3.22L7.71 3.22ZM10.57 10.64C9.16 10.64 8.25 9.65 8.09 8.40L13.96 8.40L13.96 7.98C13.96 5.98 12.63 4.37 10.49 4.37C8.34 4.37 7.01 5.98 7.01 7.98C7.01 9.98 8.41 11.59 10.56 11.59C12.22 11.59 13.26 10.72 13.75 9.46L12.60 9.46C12.22 10.16 11.55 10.64 10.57 10.64ZM10.49 5.32C11.83 5.32 12.67 6.23 12.87 7.42L8.11 7.42C8.30 6.23 9.14 5.32 10.49 5.32ZM18.37 10.64C16.95 10.64 16.04 9.65 15.89 8.40L21.76 8.40L21.76 7.98C21.76 5.98 20.43 4.37 18.28 4.37C16.14 4.37 14.81 5.98 14.81 7.98C14.81 9.98 16.21 11.59 18.35 11.59C20.02 11.59 21.06 10.72 21.55 9.46L20.40 9.46C20.02 10.16 19.35 10.64 18.37 10.64ZM18.28 5.32C19.63 5.32 20.47 6.23 20.66 7.42L15.90 7.42C16.10 6.23 16.94 5.32 18.28 5.32ZM32.69 2.21L32.69 6.33L27.30 6.33L27.30 2.21L26.25 2.21L26.25 11.48L27.30 11.48L27.30 7.35L32.69 7.35L32.69 11.48L33.74 11.48L33.74 2.21ZM38.78 10.64C37.37 10.64 36.46 9.65 36.30 8.40L42.17 8.40L42.17 7.98C42.17 5.98 40.84 4.37 38.70 4.37C36.55 4.37 35.22 5.98 35.22 7.98C35.22 9.98 36.62 11.59 38.77 11.59C40.43 11.59 41.47 10.72 41.96 9.46L40.81 9.46C40.43 10.16 39.76 10.64 38.78 10.64ZM38.70 5.32C40.04 5.32 40.88 6.23 41.08 7.42L36.32 7.42C36.51 6.23 37.35 5.32 38.70 5.32ZM46.58 10.64C45.16 10.64 44.25 9.65 44.10 8.40L49.97 8.40L49.97 7.98C49.97 5.98 48.64 4.37 46.49 4.37C44.35 4.37 43.02 5.98 43.02 7.98C43.02 9.98 44.42 11.59 46.56 11.59C48.23 11.59 49.27 10.72 49.76 9.46L48.61 9.46C48.23 10.16 47.56 10.64 46.58 10.64ZM46.49 5.32C47.84 5.32 48.68 6.23 48.87 7.42L44.11 7.42C44.31 6.23 45.15 5.32 46.49 5.32Z"></path></g><defs data-v-fde0c5aa=""><!----></defs><g data-v-fde0c5aa="" id="02fd9b98-5c30-47e6-8c21-132377af04f9" stroke="none" fill="#ffffff" transform="matrix(0.5082453837522384,0,0,0.5082453837522384,40,125.60422157989255)"><path d="M64.561 4C63.221 10.972 55.523 15.1 48 15.1c-7.248 0-14.96-4.188-16.508-11.1h33.069zm25.067 36H77c-1.225 0-1.076.22-1.076 1.436V92h-52V41.436c0-1.216-2.972-1.436-4.184-1.436H6.376L0 18.404 27.112 5.028C29.056 14.172 38.856 19.6 48 19.6c9.348 0 18.984-5.332 20.904-14.36L96 18.452 89.628 40z"></path></g><!----></svg>